<svg xmlns="http://www.w3.org/2000/svg" xmlns:xlink="http://www.w3.org/1999/xlink" contentStyleType="text/css" height="523px" preserveAspectRatio="none" style="width:986px;height:523px;background:#FFFFFF;" version="1.1" viewBox="0 0 986 523" width="986px" zoomAndPan="magnify"><defs/><g><!--class User--><g id="elem_User"><rect codeLine="3" fill="#F1F1F1" height="80.5938" id="User" rx="2.5" ry="2.5" style="stroke:#181818;stroke-width:0.5;" width="144" x="281.66" y="7"/><ellipse cx="333.41" cy="23" fill="#ADD1B2" rx="11" ry="11" style="stroke:#181818;stroke-width:1.0;"/><path d="M336.3788,28.6406 Q335.8006,28.9375 335.16,29.0781 Q334.5194,29.2344 333.8163,29.2344 Q331.3163,29.2344 329.9881,27.5938 Q328.6756,25.9375 328.6756,22.8125 Q328.6756,19.6875 329.9881,18.0313 Q331.3163,16.375 333.8163,16.375 Q334.5194,16.375 335.16,16.5313 Q335.8163,16.6875 336.3788,16.9844 L336.3788,19.7031 Q335.7538,19.125 335.16,18.8594 Q334.5663,18.5781 333.9413,18.5781 Q332.5975,18.5781 331.91,19.6563 Q331.2225,20.7188 331.2225,22.8125 Q331.2225,24.9063 331.91,25.9844 Q332.5975,27.0469 333.9413,27.0469 Q334.5663,27.0469 335.16,26.7813 Q335.7538,26.5 336.3788,25.9219 L336.3788,28.6406 Z " fill="#000000"/><text fill="#000000" font-family="sans-serif" font-size="14" lengthAdjust="spacing" textLength="32" x="353.91" y="27.8467">User</text><line style="stroke:#181818;stroke-width:0.5;" x1="282.66" x2="424.66" y1="39" y2="39"/><ellipse cx="292.66" cy="52.6484" fill="none" rx="3" ry="3" style="stroke:#038048;stroke-width:1.0;"/><text fill="#000000" font-family="sans-serif" font-size="14" lengthAdjust="spacing" textLength="118" x="301.66" y="55.9951">username: string</text><ellipse cx="292.66" cy="68.9453" fill="none" rx="3" ry="3" style="stroke:#038048;stroke-width:1.0;"/><text fill="#000000" font-family="sans-serif" font-size="14" lengthAdjust="spacing" textLength="115" x="301.66" y="72.292">password: string</text><line style="stroke:#181818;stroke-width:0.5;" x1="282.66" x2="424.66" y1="79.5938" y2="79.5938"/></g><!--class AuthService--><g id="elem_AuthService"><rect codeLine="8" fill="#F1F1F1" height="113.1875" id="AuthService" rx="2.5" ry="2.5" style="stroke:#181818;stroke-width:0.5;" width="432" x="137.66" y="164.59"/><ellipse cx="308.41" cy="180.59" fill="#ADD1B2" rx="11" ry="11" style="stroke:#181818;stroke-width:1.0;"/><path d="M311.3787,186.2306 Q310.8006,186.5275 310.16,186.6681 Q309.5194,186.8244 308.8162,186.8244 Q306.3162,186.8244 304.9881,185.1838 Q303.6756,183.5275 303.6756,180.4025 Q303.6756,177.2775 304.9881,175.6213 Q306.3162,173.965 308.8162,173.965 Q309.5194,173.965 310.16,174.1213 Q310.8162,174.2775 311.3787,174.5744 L311.3787,177.2931 Q310.7537,176.715 310.16,176.4494 Q309.5662,176.1681 308.9412,176.1681 Q307.5975,176.1681 306.91,177.2463 Q306.2225,178.3088 306.2225,180.4025 Q306.2225,182.4963 306.91,183.5744 Q307.5975,184.6369 308.9412,184.6369 Q309.5662,184.6369 310.16,184.3713 Q310.7537,184.09 311.3787,183.5119 L311.3787,186.2306 Z " fill="#000000"/><text fill="#000000" font-family="sans-serif" font-size="14" lengthAdjust="spacing" textLength="82" x="328.91" y="185.4367">AuthService</text><line style="stroke:#181818;stroke-width:0.5;" x1="138.66" x2="568.66" y1="196.59" y2="196.59"/><line style="stroke:#181818;stroke-width:0.5;" x1="138.66" x2="568.66" y1="204.59" y2="204.59"/><ellipse cx="148.66" cy="218.2384" fill="#84BE84" rx="3" ry="3" style="stroke:#038048;stroke-width:1.0;"/><text fill="#000000" font-family="sans-serif" font-size="14" lengthAdjust="spacing" textLength="321" x="157.66" y="221.5851">authHandler(credentials: Credentials): Session</text><ellipse cx="148.66" cy="234.5353" fill="#84BE84" rx="3" ry="3" style="stroke:#038048;stroke-width:1.0;"/><text fill="#000000" font-family="sans-serif" font-size="14" lengthAdjust="spacing" textLength="350" x="157.66" y="237.882">validateSessionHandler(sessionID: string): Session</text><ellipse cx="148.66" cy="250.8322" fill="#84BE84" rx="3" ry="3" style="stroke:#038048;stroke-width:1.0;"/><text fill="#000000" font-family="sans-serif" font-size="14" lengthAdjust="spacing" textLength="406" x="157.66" y="254.1789">validateJWTHandler(token: string, sessionID: string): Claims</text><ellipse cx="148.66" cy="267.1291" fill="#84BE84" rx="3" ry="3" style="stroke:#038048;stroke-width:1.0;"/><text fill="#000000" font-family="sans-serif" font-size="14" lengthAdjust="spacing" textLength="376" x="157.66" y="270.4757">regenerateAPIHashHandler(sessionID: string): Session</text></g><!--class Session--><g id="elem_Session"><rect codeLine="15" fill="#F1F1F1" height="162.0781" id="Session" rx="2.5" ry="2.5" style="stroke:#181818;stroke-width:0.5;" width="152" x="60.66" y="354.78"/><ellipse cx="104.91" cy="370.78" fill="#ADD1B2" rx="11" ry="11" style="stroke:#181818;stroke-width:1.0;"/><path d="M107.8788,376.4206 Q107.3006,376.7175 106.66,376.8581 Q106.0194,377.0144 105.3163,377.0144 Q102.8163,377.0144 101.4881,375.3738 Q100.1756,373.7175 100.1756,370.5925 Q100.1756,367.4675 101.4881,365.8113 Q102.8163,364.155 105.3163,364.155 Q106.0194,364.155 106.66,364.3113 Q107.3163,364.4675 107.8788,364.7644 L107.8788,367.4831 Q107.2538,366.905 106.66,366.6394 Q106.0663,366.3581 105.4413,366.3581 Q104.0975,366.3581 103.41,367.4363 Q102.7225,368.4988 102.7225,370.5925 Q102.7225,372.6863 103.41,373.7644 Q104.0975,374.8269 105.4413,374.8269 Q106.0663,374.8269 106.66,374.5613 Q107.2538,374.28 107.8788,373.7019 L107.8788,376.4206 Z " fill="#000000"/><text fill="#000000" font-family="sans-serif" font-size="14" lengthAdjust="spacing" textLength="55" x="125.41" y="375.6267">Session</text><line style="stroke:#181818;stroke-width:0.5;" x1="61.66" x2="211.66" y1="386.78" y2="386.78"/><ellipse cx="71.66" cy="400.4284" fill="none" rx="3" ry="3" style="stroke:#038048;stroke-width:1.0;"/><text fill="#000000" font-family="sans-serif" font-size="14" lengthAdjust="spacing" textLength="60" x="80.66" y="403.7751">id: string</text><ellipse cx="71.66" cy="416.7253" fill="none" rx="3" ry="3" style="stroke:#038048;stroke-width:1.0;"/><text fill="#000000" font-family="sans-serif" font-size="14" lengthAdjust="spacing" textLength="115" x="80.66" y="420.072">createdAt: string</text><ellipse cx="71.66" cy="433.0222" fill="none" rx="3" ry="3" style="stroke:#038048;stroke-width:1.0;"/><text fill="#000000" font-family="sans-serif" font-size="14" lengthAdjust="spacing" textLength="116" x="80.66" y="436.3689">lastOnline: string</text><ellipse cx="71.66" cy="449.3191" fill="none" rx="3" ry="3" style="stroke:#038048;stroke-width:1.0;"/><text fill="#000000" font-family="sans-serif" font-size="14" lengthAdjust="spacing" textLength="72" x="80.66" y="452.6657">user: User</text><ellipse cx="71.66" cy="465.6159" fill="none" rx="3" ry="3" style="stroke:#038048;stroke-width:1.0;"/><text fill="#000000" font-family="sans-serif" font-size="14" lengthAdjust="spacing" textLength="126" x="80.66" y="468.9626">oneTime: boolean</text><ellipse cx="71.66" cy="481.9128" fill="none" rx="3" ry="3" style="stroke:#038048;stroke-width:1.0;"/><text fill="#000000" font-family="sans-serif" font-size="14" lengthAdjust="spacing" textLength="103" x="80.66" y="485.2595">apiHash: string</text><ellipse cx="71.66" cy="498.2097" fill="none" rx="3" ry="3" style="stroke:#038048;stroke-width:1.0;"/><text fill="#000000" font-family="sans-serif" font-size="14" lengthAdjust="spacing" textLength="111" x="80.66" y="501.5564">jwtToken: string</text><line style="stroke:#181818;stroke-width:0.5;" x1="61.66" x2="211.66" y1="508.8581" y2="508.8581"/></g><!--class Credentials--><g id="elem_Credentials"><rect codeLine="25" fill="#F1F1F1" height="80.5938" id="Credentials" rx="2.5" ry="2.5" style="stroke:#181818;stroke-width:0.5;" width="144" x="399.66" y="395.52"/><ellipse cx="429.96" cy="411.52" fill="#ADD1B2" rx="11" ry="11" style="stroke:#181818;stroke-width:1.0;"/><path d="M432.9288,417.1606 Q432.3506,417.4575 431.71,417.5981 Q431.0694,417.7544 430.3663,417.7544 Q427.8663,417.7544 426.5381,416.1138 Q425.2256,414.4575 425.2256,411.3325 Q425.2256,408.2075 426.5381,406.5513 Q427.8663,404.895 430.3663,404.895 Q431.0694,404.895 431.71,405.0513 Q432.3663,405.2075 432.9288,405.5044 L432.9288,408.2231 Q432.3038,407.645 431.71,407.3794 Q431.1163,407.0981 430.4913,407.0981 Q429.1475,407.0981 428.46,408.1763 Q427.7725,409.2388 427.7725,411.3325 Q427.7725,413.4263 428.46,414.5044 Q429.1475,415.5669 430.4913,415.5669 Q431.1163,415.5669 431.71,415.3013 Q432.3038,415.02 432.9288,414.4419 L432.9288,417.1606 Z " fill="#000000"/><text fill="#000000" font-family="sans-serif" font-size="14" lengthAdjust="spacing" textLength="78" x="447.36" y="416.3667">Credentials</text><line style="stroke:#181818;stroke-width:0.5;" x1="400.66" x2="542.66" y1="427.52" y2="427.52"/><ellipse cx="410.66" cy="441.1684" fill="none" rx="3" ry="3" style="stroke:#038048;stroke-width:1.0;"/><text fill="#000000" font-family="sans-serif" font-size="14" lengthAdjust="spacing" textLength="118" x="419.66" y="444.5151">username: string</text><ellipse cx="410.66" cy="457.4653" fill="none" rx="3" ry="3" style="stroke:#038048;stroke-width:1.0;"/><text fill="#000000" font-family="sans-serif" font-size="14" lengthAdjust="spacing" textLength="115" x="419.66" y="460.812">password: string</text><line style="stroke:#181818;stroke-width:0.5;" x1="400.66" x2="542.66" y1="468.1138" y2="468.1138"/></g><!--class Claims--><g id="elem_Claims"><rect codeLine="30" fill="#F1F1F1" height="80.5938" id="Claims" rx="2.5" ry="2.5" style="stroke:#181818;stroke-width:0.5;" width="144" x="578.66" y="395.52"/><ellipse cx="623.91" cy="411.52" fill="#ADD1B2" rx="11" ry="11" style="stroke:#181818;stroke-width:1.0;"/><path d="M626.8788,417.1606 Q626.3006,417.4575 625.66,417.5981 Q625.0194,417.7544 624.3163,417.7544 Q621.8163,417.7544 620.4881,416.1138 Q619.1756,414.4575 619.1756,411.3325 Q619.1756,408.2075 620.4881,406.5513 Q621.8163,404.895 624.3163,404.895 Q625.0194,404.895 625.66,405.0513 Q626.3163,405.2075 626.8788,405.5044 L626.8788,408.2231 Q626.2538,407.645 625.66,407.3794 Q625.0663,407.0981 624.4413,407.0981 Q623.0975,407.0981 622.41,408.1763 Q621.7225,409.2388 621.7225,411.3325 Q621.7225,413.4263 622.41,414.5044 Q623.0975,415.5669 624.4413,415.5669 Q625.0663,415.5669 625.66,415.3013 Q626.2538,415.02 626.8788,414.4419 L626.8788,417.1606 Z " fill="#000000"/><text fill="#000000" font-family="sans-serif" font-size="14" lengthAdjust="spacing" textLength="45" x="644.41" y="416.3667">Claims</text><line style="stroke:#181818;stroke-width:0.5;" x1="579.66" x2="721.66" y1="427.52" y2="427.52"/><ellipse cx="589.66" cy="441.1684" fill="none" rx="3" ry="3" style="stroke:#038048;stroke-width:1.0;"/><text fill="#000000" font-family="sans-serif" font-size="14" lengthAdjust="spacing" textLength="118" x="598.66" y="444.5151">username: string</text><ellipse cx="589.66" cy="457.4653" fill="none" rx="3" ry="3" style="stroke:#038048;stroke-width:1.0;"/><text fill="#000000" font-family="sans-serif" font-size="14" lengthAdjust="spacing" textLength="83" x="598.66" y="460.812">exp: integer</text><line style="stroke:#181818;stroke-width:0.5;" x1="579.66" x2="721.66" y1="468.1138" y2="468.1138"/></g><!--link User to AuthService--><!--link User to AuthService--><g id="link_User_AuthService"><path codeLine="40" d="M281.18,67.06 C255.62,77.53 229.56,93.52 214.66,117.59 C203.77,135.19 204.6166,146.4982 217.8466,159.8482 " fill="none" id="User-to-AuthService-1" style="stroke:#181818;stroke-width:1.0;"/><polygon fill="#181818" points="222.07,164.11,218.576,154.9017,218.5505,160.5585,212.8937,160.533,222.07,164.11" style="stroke:#181818;stroke-width:1.0;"/><text fill="#000000" font-family="sans-serif" font-size="13" lengthAdjust="spacing" textLength="94" x="215.66" y="130.6569">POST /api/auth</text></g><!--link User to AuthService--><g id="link_User_AuthService"><path codeLine="42" d="M351.65,87.87 C351.24,97.58 350.87,107.96 350.66,117.59 C350.33,132.74 350.3758,143.1325 350.8158,158.2825 " fill="none" id="User-to-AuthService-2" style="stroke:#181818;stroke-width:1.0;"/><polygon fill="#181818" points="350.99,164.28,354.727,155.1677,350.8448,159.2821,346.7304,155.3999,350.99,164.28" style="stroke:#181818;stroke-width:1.0;"/><text fill="#000000" font-family="sans-serif" font-size="13" lengthAdjust="spacing" textLength="185" x="351.66" y="130.6569">GET /api/session/{sessionID}</text></g><!--link User to AuthService--><g id="link_User_AuthService"><path codeLine="44" d="M425.71,54.99 C466.98,62.94 515.6,80.21 541.66,117.59 C554.52,136.05 555.1061,147.3215 541.9261,160.1715 " fill="none" id="User-to-AuthService-3" style="stroke:#181818;stroke-width:1.0;"/><polygon fill="#181818" points="537.63,164.36,546.8665,160.9413,541.2101,160.8696,541.2818,155.2132,537.63,164.36" style="stroke:#181818;stroke-width:1.0;"/><text fill="#000000" font-family="sans-serif" font-size="13" lengthAdjust="spacing" textLength="137" x="549.66" y="130.6569">POST /api/validate-jwt</text></g><!--link User to AuthService--><g id="link_User_AuthService"><path codeLine="46" d="M425.79,52.48 C515.87,59.39 662.25,76.73 695.66,117.59 C718.32,145.31 656.7735,167.6273 575.9635,185.1673 " fill="none" id="User-to-AuthService-4" style="stroke:#181818;stroke-width:1.0;"/><polygon fill="#181818" points="570.1,186.44,579.7437,188.44,574.9862,185.3794,578.0468,180.622,570.1,186.44" style="stroke:#181818;stroke-width:1.0;"/><text fill="#000000" font-family="sans-serif" font-size="13" lengthAdjust="spacing" textLength="277" x="701.66" y="130.6569">POST /api/regenerate-api-hash/{sessionID}</text></g><!--link AuthService to Session--><!--link AuthService to Session--><g id="link_AuthService_Session"><path codeLine="41" d="M137.42,266.79 C101.66,278.42 72.38,292.15 60.66,307.78 C48.56,323.92 48.2135,336.8068 57.4535,354.2668 " fill="none" id="AuthService-to-Session-1" style="stroke:#181818;stroke-width:1.0;"/><polygon fill="#181818" points="60.26,359.57,59.5857,349.7443,57.9213,355.1507,52.5148,353.4862,60.26,359.57" style="stroke:#181818;stroke-width:1.0;"/><text fill="#000000" font-family="sans-serif" font-size="13" lengthAdjust="spacing" textLength="103" x="61.66" y="320.8469">Returns Session</text></g><!--link AuthService to Session--><g id="link_AuthService_Session"><path codeLine="43" d="M241.25,278.08 C228.44,287.01 216.22,296.94 205.66,307.78 C192.53,321.27 184.1543,332.5548 174.6543,349.1248 " fill="none" id="AuthService-to-Session-2" style="stroke:#181818;stroke-width:1.0;"/><polygon fill="#181818" points="171.67,354.33,179.6165,348.5117,174.1569,349.9923,172.6763,344.5327,171.67,354.33" style="stroke:#181818;stroke-width:1.0;"/><text fill="#000000" font-family="sans-serif" font-size="13" lengthAdjust="spacing" textLength="103" x="206.66" y="320.8469">Returns Session</text></g><!--link AuthService to Session--><g id="link_AuthService_Session"><path codeLine="47" d="M339.79,278.18 C333.91,294.4 325.76,311.34 314.66,324.78 C287.48,357.7 253.0637,380.7935 218.0337,399.1635 " fill="none" id="AuthService-to-Session-3" style="stroke:#181818;stroke-width:1.0;"/><polygon fill="#181818" points="212.72,401.95,222.5482,401.3127,217.1481,399.6279,218.8328,394.2277,212.72,401.95" style="stroke:#181818;stroke-width:1.0;"/><text fill="#000000" font-family="sans-serif" font-size="13" lengthAdjust="spacing" textLength="103" x="326.66" y="320.8469">Returns Session</text></g><!--link AuthService to Credentials--><!--link AuthService to Claims--><!--link AuthService to Claims--><g id="link_AuthService_Claims"><path codeLine="45" d="M485.54,278.15 C501.97,287.15 518.09,297.07 532.66,307.78 C566.48,332.66 594.6902,363.4984 616.8102,390.6484 " fill="none" id="AuthService-to-Claims-1" style="stroke:#181818;stroke-width:1.0;"/><polygon fill="#181818" points="620.6,395.3,618.0164,385.7961,617.4418,391.4237,611.8142,390.8491,620.6,395.3" style="stroke:#181818;stroke-width:1.0;"/><text fill="#000000" font-family="sans-serif" font-size="13" lengthAdjust="spacing" textLength="96" x="552.66" y="320.8469">Returns Claims</text></g><!--SRC=[hLF1JW8n4BtlLrHE6jrmtuF91ZU0CK9WZGVZeTAHhPOkQGkO4FxTsTsMRQDh2F56tyvxC_FcSS7WdKiWisoGfu_3Xumi1DKwYbhWIOCY-uYGQxB1dvAk827QA2wNDRZ6-bsfs14y-EnqOuevg2rVW1MXY8oeP0BKvK810sau5JeXW_PnbP0vQCrBMLEsL7163LZCiNNp7D-vrXsq- -VSKKpv2TALtv3V50Q2yfMk1HGiGO92YNGw7b5TdD8vMD-2TdNE0kTmUvHcgGbGzDzCfC2h173bVL8VetwM4d9UNUAjB0NGPc6wvjMK0UzZPt9_wN0-p_FpRzmuzXSVljO9uTAWdwhYrfcANmhEiFjhVEl79F8ZuzSuWxk-UxjqrpJ7jGE4ZKb2UjF9F2TzzB5VnRGNwhGpLAKpC1ibjODwdPh3p4hQrFJtn_WS_gT3ExMBV8nd_wbj3-L9DyWfokr_8SPdN63Epbxa6m00]--></g></svg>